<?xml version="1.0" standalone="no"?>
<!DOCTYPE svg PUBLIC "-//W3C//DTD SVG 20010904//EN"
 "http://www.w3.org/TR/2001/REC-SVG-20010904/DTD/svg10.dtd">
<svg version="1.0" xmlns="http://www.w3.org/2000/svg"
 width="900.000000pt" height="594.000000pt" viewBox="0 0 900.000000 594.000000"
 preserveAspectRatio="xMidYMid meet">

<g transform="translate(0.000000,594.000000) scale(0.100000,-0.100000)"
fill="#000000" stroke="none">
<path d="M4300 5929 c-585 -35 -1139 -247 -1630 -623 -130 -99 -402 -369 -500
-496 -455 -592 -668 -1266 -630 -1996 19 -372 96 -697 244 -1039 220 -507 607
-965 1081 -1282 423 -282 943 -455 1450 -482 751 -41 1417 165 2015 623 130
99 402 369 500 496 389 506 598 1062 630 1678 38 742 -181 1430 -640 2013
-169 214 -446 466 -685 626 -534 355 -1171 522 -1835 482z m535 -364 c465 -61
903 -244 1275 -534 112 -87 303 -272 402 -391 422 -503 645 -1186 599 -1835
-27 -367 -106 -664 -266 -990 -315 -644 -900 -1141 -1585 -1348 -471 -143
-977 -150 -1445 -22 -354 97 -713 284 -985 513 -115 97 -293 278 -380 387
-155 195 -320 488 -405 719 -214 581 -214 1231 0 1812 85 231 250 524 405 719
87 109 265 290 380 387 203 171 513 351 764 443 389 143 833 193 1241 140z"/>
<path d="M3828 4956 c-35 -18 -114 -63 -176 -100 -123 -74 -148 -102 -139
-165 3 -23 104 -208 278 -511 294 -508 303 -520 378 -520 27 1 76 24 195 93
87 51 168 104 179 119 12 17 20 43 21 70 0 39 -25 88 -248 473 -325 564 -311
541 -343 553 -64 24 -80 23 -145 -12z"/>
<path d="M3406 4607 c-272 -171 -348 -253 -402 -433 -24 -79 -25 -306 -1 -459
139 -886 819 -2034 1513 -2556 96 -72 226 -147 304 -174 107 -38 251 -38 366
0 55 19 219 96 248 118 19 14 7 36 -260 499 l-279 485 -45 -21 c-70 -32 -223
-29 -307 6 -246 104 -502 412 -639 770 -71 187 -103 369 -85 497 16 122 45
186 113 255 l59 58 -270 468 c-149 257 -273 474 -277 483 -7 20 -12 20 -38 4z"/>
<path d="M5160 2377 c-140 -80 -166 -99 -182 -132 -13 -25 -18 -49 -15 -71 3
-18 130 -248 282 -512 202 -349 285 -483 305 -495 56 -34 94 -23 255 69 83 47
160 95 172 106 28 27 47 82 38 115 -11 46 -536 947 -571 981 -27 26 -42 32
-77 32 -37 0 -70 -15 -207 -93z"/>
</g>
</svg>
